<?xml version="1.0" standalone="no"?><!DOCTYPE svg PUBLIC "-//W3C//DTD SVG 1.1//EN" "http://www.w3.org/Graphics/SVG/1.1/DTD/svg11.dtd"><svg t="1545881708744" class="icon" style="" viewBox="0 0 1195 1024" version="1.1" xmlns="http://www.w3.org/2000/svg" p-id="2829" xmlns:xlink="http://www.w3.org/1999/xlink" width="74.6875" height="64"><defs><style type="text/css"></style></defs><path d="M1109.333333 1024l-85.333333 0L85.333333 1024c-23.552 0-44.885333-9.557333-60.330667-25.002667C9.557333 983.552 0 962.218667 0 938.666667L0 256 0 85.333333c0-47.104 38.229333-85.333333 85.333333-85.333333l426.666667 0c20.224 0 38.058667 8.021333 52.650667 19.797333C632.405333 64.085333 700.245333 170.666667 768 170.666667l341.333333 0c47.104 0 85.333333 38.144 85.333333 85.333333l0 682.666667C1194.666667 985.770667 1156.437333 1024 1109.333333 1024z" p-id="2830" fill="#1296db"></path></svg>